<mxfile host="app.diagrams.net" modified="2023-04-14T02:25:58.404Z" agent="Mozilla/5.0 (Macintosh; Intel Mac OS X 10_15_7) AppleWebKit/537.36 (KHTML, like Gecko) Chrome/112.0.0.0 Safari/537.36" version="21.1.7" etag="JP3NaIJeh-NrM1lusgla" type="github">
  <diagram name="第 1 页" id="1_6PRCmGBymp-9tW762r">
    <mxGraphModel>
      <root>
        <mxCell id="0" />
        <mxCell id="1" parent="0" />
      </root>
    </mxGraphModel>
  </diagram>
</mxfile>
